<svg xmlns="http://www.w3.org/2000/svg" viewBox="0 0 145 45" width="145" height="45" isolation="isolate">
  <defs>
    <clipPath id="_clipPath_6r2SoGTZl89k8dITc7wLZ9DmDHzP7Mww">
      <rect width="145.196" height="53.446"/>
    </clipPath>
  </defs>
  <g clip-path="url(#_clipPath_6r2SoGTZl89k8dITc7wLZ9DmDHzP7Mww)">
    <g>
      <g>
        <g>
          <path d="M23.88 35.038L20.189 38.729 32.079 50.625C32.594 51.139 33.292 51.446 33.969 51.446L33.967 51.446C34.644 51.446 35.261 51.139 35.773 50.625L50.622 35.775C51.115 35.287 51.393 34.622 51.393 33.929 51.393 33.235 51.115 32.57 50.622 32.082L38.727 20.189 35.035 23.877 39.63 28.472C37.834 28.083 36.214 28.094 35.773 28.393 33.014 30.278 41.341 35.077 38.236 36.269 37.802 36.432 36.962 36.34 35.773 35.775 33.25 34.586 31.383 34.463 30.688 35.447 29.876 36.587 33.465 40.052 30.194 41.354L23.88 35.038Z" vector-effect="non-scaling-stroke" style="stroke-linecap:butt;stroke-linejoin:miter;stroke-miterlimit:4;stroke-width:1;stroke:rgb(0,0,0)" class="logo-parts"/>
          <path d="M16.983 35.526L12.144 30.685C11.16 29.709 10.606 28.38 10.606 26.994 10.606 25.607 11.16 24.278 12.144 23.302L14.113 21.252C15.108 20.254 14.166 18.679 13.21 17.642 12.494 16.852 11.703 16.061 11.16 15.836 9.109 14.974 6.177 13.559 3.775 11.16 0.186 7.571-1.064 3.037 0.986 0.986 3.037-1.064 7.571 0.186 11.16 3.777 13.559 6.177 16.122 10.083 16.983 12.144 17.209 12.688 18.007 13.467 18.789 14.195 19.818 15.146 20.267 15.11 21.252 14.113L23.302 12.144C24.279 11.159 25.608 10.605 26.995 10.605 28.382 10.605 29.711 11.159 30.688 12.144L35.526 16.986 16.983 35.526ZM6.565 9.193C7.243 9.193 7.938 8.968 8.453 8.456 9.477 7.432 9.477 5.707 8.453 4.68 7.403 3.656 5.728 3.656 4.678 4.68 3.651 5.729 3.651 7.407 4.678 8.456 5.192 8.968 5.888 9.193 6.565 9.193Z" class="logo-parts"/>
        </g>
        <path d="M56.785 48.96L60.409 48.96 60.409 32.64 56.785 32.64 56.785 48.96ZM69.433 38.184L69.433 38.184 69.433 38.184Q69.433 36.216 68.677 34.896L68.677 34.896 68.677 34.896Q67.921 33.576 66.721 32.916L66.721 32.916 66.721 32.916Q65.521 32.256 64.177 32.256L64.177 32.256 64.177 32.256Q63.097 32.256 62.233 32.676L62.233 32.676 62.233 32.676Q61.369 33.096 60.769 33.876L60.769 33.876 60.769 33.876Q60.169 34.656 59.857 35.736L59.857 35.736 59.857 35.736Q59.545 36.816 59.545 38.16L59.545 38.16 59.545 38.16Q59.545 39.504 59.857 40.584L59.857 40.584 59.857 40.584Q60.169 41.664 60.769 42.444L60.769 42.444 60.769 42.444Q61.369 43.224 62.233 43.632L62.233 43.632 62.233 43.632Q63.097 44.04 64.177 44.04L64.177 44.04 64.177 44.04Q65.521 44.04 66.721 43.38L66.721 43.38 66.721 43.38Q67.921 42.72 68.677 41.424L68.677 41.424 68.677 41.424Q69.433 40.128 69.433 38.184ZM65.593 38.16L65.593 38.16 65.593 38.16Q65.593 39.024 65.233 39.624L65.233 39.624 65.233 39.624Q64.873 40.224 64.285 40.536L64.285 40.536 64.285 40.536Q63.697 40.848 62.953 40.848L62.953 40.848 62.953 40.848Q62.521 40.848 62.065 40.68L62.065 40.68 62.065 40.68Q61.609 40.512 61.237 40.176L61.237 40.176 61.237 40.176Q60.865 39.84 60.637 39.336L60.637 39.336 60.637 39.336Q60.409 38.832 60.409 38.184L60.409 38.184 60.409 38.184Q60.409 37.488 60.637 36.984L60.637 36.984 60.637 36.984Q60.865 36.48 61.237 36.132L61.237 36.132 61.237 36.132Q61.609 35.784 62.065 35.628L62.065 35.628 62.065 35.628Q62.521 35.472 62.977 35.472L62.977 35.472 62.977 35.472Q63.697 35.472 64.285 35.784L64.285 35.784 64.285 35.784Q64.873 36.096 65.233 36.696L65.233 36.696 65.233 36.696Q65.593 37.296 65.593 38.16ZM74.449 40.224L74.449 40.224 74.449 40.224Q74.449 39.792 74.629 39.528L74.629 39.528 74.629 39.528Q74.809 39.264 75.205 39.12L75.205 39.12 75.205 39.12Q75.601 38.976 76.225 38.976L76.225 38.976 76.225 38.976Q77.065 38.976 77.821 39.204L77.821 39.204 77.821 39.204Q78.577 39.432 79.153 39.864L79.153 39.864 79.153 38.256 79.153 38.256Q78.889 37.944 78.301 37.656L78.301 37.656 78.301 37.656Q77.713 37.368 76.897 37.188L76.897 37.188 76.897 37.188Q76.081 37.008 75.121 37.008L75.121 37.008 75.121 37.008Q73.681 37.008 72.733 37.404L72.733 37.404 72.733 37.404Q71.785 37.8 71.293 38.58L71.293 38.58 71.293 38.58Q70.801 39.36 70.801 40.416L70.801 40.416 70.801 40.416Q70.801 41.544 71.341 42.336L71.341 42.336 71.341 42.336Q71.881 43.128 72.769 43.524L72.769 43.524 72.769 43.524Q73.657 43.92 74.713 43.92L74.713 43.92 74.713 43.92Q75.769 43.92 76.693 43.548L76.693 43.548 76.693 43.548Q77.617 43.176 78.181 42.444L78.181 42.444 78.181 42.444Q78.745 41.712 78.745 40.656L78.745 40.656 78.361 39.216 78.361 39.216Q78.361 39.984 78.025 40.512L78.025 40.512 78.025 40.512Q77.689 41.04 77.161 41.304L77.161 41.304 77.161 41.304Q76.633 41.568 76.009 41.568L76.009 41.568 76.009 41.568Q75.577 41.568 75.217 41.4L75.217 41.4 75.217 41.4Q74.857 41.232 74.653 40.944L74.653 40.944 74.653 40.944Q74.449 40.656 74.449 40.224ZM71.593 33.576L72.817 36.024 72.817 36.024Q73.033 35.88 73.573 35.652L73.573 35.652 73.573 35.652Q74.113 35.424 74.833 35.256L74.833 35.256 74.833 35.256Q75.553 35.088 76.297 35.088L76.297 35.088 76.297 35.088Q76.801 35.088 77.185 35.184L77.185 35.184 77.185 35.184Q77.569 35.28 77.845 35.484L77.845 35.484 77.845 35.484Q78.121 35.688 78.241 36.012L78.241 36.012 78.241 36.012Q78.361 36.336 78.361 36.72L78.361 36.72 78.361 43.68 81.841 43.68 81.841 35.88 81.841 35.88Q81.841 34.752 81.169 33.96L81.169 33.96 81.169 33.96Q80.497 33.168 79.357 32.748L79.357 32.748 79.357 32.748Q78.217 32.328 76.729 32.328L76.729 32.328 76.729 32.328Q75.169 32.328 73.861 32.724L73.861 32.724 73.861 32.724Q72.553 33.12 71.593 33.576L71.593 33.576ZM88.201 32.64L84.673 32.64 84.673 43.68 88.201 43.68 88.201 32.64ZM98.377 36.96L98.377 36.96 98.377 43.68 102.169 43.68 102.169 36.576 102.169 36.576Q102.169 35.256 101.749 34.32L101.749 34.32 101.749 34.32Q101.329 33.384 100.453 32.88L100.453 32.88 100.453 32.88Q99.577 32.376 98.209 32.376L98.209 32.376 98.209 32.376Q97.009 32.376 96.169 32.88L96.169 32.88 96.169 32.88Q95.329 33.384 94.849 34.296L94.849 34.296 94.849 32.64 91.177 32.64 91.177 43.68 94.849 43.68 94.849 36.96 94.849 36.96Q94.849 36.336 95.089 35.868L95.089 35.868 95.089 35.868Q95.329 35.4 95.761 35.172L95.761 35.172 95.761 35.172Q96.193 34.944 96.769 34.944L96.769 34.944 96.769 34.944Q97.369 34.944 97.717 35.172L97.717 35.172 97.717 35.172Q98.065 35.4 98.221 35.856L98.221 35.856 98.221 35.856Q98.377 36.312 98.377 36.96ZM111.097 32.64L103.705 32.64 103.705 35.64 111.097 35.64 111.097 32.64ZM109.153 28.8L105.649 28.8 105.649 43.68 109.153 43.68 109.153 28.8ZM118.273 43.92L118.273 43.92 118.273 43.92Q120.385 43.92 121.849 43.104L121.849 43.104 121.849 43.104Q123.313 42.288 124.201 40.656L124.201 40.656 120.937 39.864 120.937 39.864Q120.553 40.584 119.857 40.944L119.857 40.944 119.857 40.944Q119.161 41.304 118.201 41.304L118.201 41.304 118.201 41.304Q117.385 41.304 116.797 40.92L116.797 40.92 116.797 40.92Q116.209 40.536 115.921 39.828L115.921 39.828 115.921 39.828Q115.633 39.12 115.657 38.112L115.657 38.112 115.657 38.112Q115.657 37.272 115.813 36.66L115.813 36.66 115.813 36.66Q115.969 36.048 116.281 35.64L116.281 35.64 116.281 35.64Q116.593 35.232 117.061 35.028L117.061 35.028 117.061 35.028Q117.529 34.824 118.153 34.824L118.153 34.824 118.153 34.824Q118.777 34.824 119.269 35.112L119.269 35.112 119.269 35.112Q119.761 35.4 120.001 35.916L120.001 35.916 120.001 35.916Q120.241 36.432 120.241 37.176L120.241 37.176 120.241 37.176Q120.241 37.344 120.169 37.572L120.169 37.572 120.169 37.572Q120.097 37.8 119.977 38.016L119.977 38.016 120.841 36.912 114.025 36.912 114.025 38.928 124.129 38.928 124.129 38.928Q124.153 38.736 124.153 38.496L124.153 38.496 124.153 38.496Q124.153 38.256 124.153 37.992L124.153 37.992 124.153 37.992Q124.153 36.216 123.457 34.968L123.457 34.968 123.457 34.968Q122.761 33.72 121.441 33.06L121.441 33.06 121.441 33.06Q120.121 32.4 118.201 32.4L118.201 32.4 118.201 32.4Q116.761 32.4 115.609 32.796L115.609 32.796 115.609 32.796Q114.457 33.192 113.641 33.936L113.641 33.936 113.641 33.936Q112.825 34.68 112.405 35.748L112.405 35.748 112.405 35.748Q111.985 36.816 111.985 38.16L111.985 38.16 111.985 38.16Q111.985 39.912 112.753 41.208L112.753 41.208 112.753 41.208Q113.521 42.504 114.925 43.212L114.925 43.212 114.925 43.212Q116.329 43.92 118.273 43.92ZM129.961 43.68L129.961 32.64 126.361 32.64 126.361 43.68 129.961 43.68ZM133.153 36.408L133.153 36.408 134.737 33.264 134.737 33.264Q134.473 32.904 133.909 32.64L133.909 32.64 133.909 32.64Q133.345 32.376 132.745 32.376L132.745 32.376 132.745 32.376Q131.809 32.376 130.981 32.976L130.981 32.976 130.981 32.976Q130.153 33.576 129.625 34.608L129.625 34.608 129.625 34.608Q129.097 35.64 129.097 36.96L129.097 36.96 129.961 38.232 129.961 38.232Q129.961 37.44 130.189 36.888L130.189 36.888 130.189 36.888Q130.417 36.336 130.825 36.06L130.825 36.06 130.825 36.06Q131.233 35.784 131.737 35.784L131.737 35.784 131.737 35.784Q132.217 35.784 132.541 35.952L132.541 35.952 132.541 35.952Q132.865 36.12 133.153 36.408Z" class="logo-parts"/>
        <path d="M68.612 11.505L64.988 11.505 64.988 30.225 68.612 30.225 68.612 11.505ZM55.964 24.705L55.964 24.705 55.964 24.705Q55.964 26.553 56.708 27.849L56.708 27.849 56.708 27.849Q57.452 29.145 58.64 29.805L58.64 29.805 58.64 29.805Q59.828 30.465 61.196 30.465L61.196 30.465 61.196 30.465Q62.252 30.465 63.116 30.069L63.116 30.069 63.116 30.069Q63.98 29.673 64.64 28.929L64.64 28.929 64.64 28.929Q65.3 28.185 65.648 27.117L65.648 27.117 65.648 27.117Q65.996 26.049 65.996 24.705L65.996 24.705 65.996 24.705Q65.996 23.361 65.648 22.293L65.648 22.293 65.648 22.293Q65.3 21.225 64.652 20.481L64.652 20.481 64.652 20.481Q64.004 19.737 63.128 19.341L63.128 19.341 63.128 19.341Q62.252 18.945 61.196 18.945L61.196 18.945 61.196 18.945Q59.828 18.945 58.64 19.605L58.64 19.605 58.64 19.605Q57.452 20.265 56.708 21.549L56.708 21.549 56.708 21.549Q55.964 22.833 55.964 24.705ZM59.78 24.705L59.78 24.705 59.78 24.705Q59.78 23.841 60.14 23.205L60.14 23.205 60.14 23.205Q60.5 22.569 61.1 22.221L61.1 22.221 61.1 22.221Q61.7 21.873 62.42 21.873L62.42 21.873 62.42 21.873Q62.876 21.873 63.332 22.065L63.332 22.065 63.332 22.065Q63.788 22.257 64.16 22.617L64.16 22.617 64.16 22.617Q64.532 22.977 64.76 23.505L64.76 23.505 64.76 23.505Q64.988 24.033 64.988 24.705L64.988 24.705 64.988 24.705Q64.988 25.377 64.76 25.893L64.76 25.893 64.76 25.893Q64.532 26.409 64.16 26.781L64.16 26.781 64.16 26.781Q63.788 27.153 63.332 27.345L63.332 27.345 63.332 27.345Q62.876 27.537 62.444 27.537L62.444 27.537 62.444 27.537Q61.7 27.537 61.1 27.189L61.1 27.189 61.1 27.189Q60.5 26.841 60.14 26.205L60.14 26.205 60.14 26.205Q59.78 25.569 59.78 24.705ZM74.037 26.769L74.037 26.769 74.037 26.769Q74.037 26.337 74.217 26.073L74.217 26.073 74.217 26.073Q74.397 25.809 74.793 25.665L74.793 25.665 74.793 25.665Q75.189 25.521 75.813 25.521L75.813 25.521 75.813 25.521Q76.653 25.521 77.409 25.749L77.409 25.749 77.409 25.749Q78.165 25.977 78.741 26.409L78.741 26.409 78.741 24.801 78.741 24.801Q78.477 24.489 77.889 24.201L77.889 24.201 77.889 24.201Q77.301 23.913 76.485 23.733L76.485 23.733 76.485 23.733Q75.669 23.553 74.709 23.553L74.709 23.553 74.709 23.553Q73.269 23.553 72.321 23.949L72.321 23.949 72.321 23.949Q71.373 24.345 70.881 25.125L70.881 25.125 70.881 25.125Q70.389 25.905 70.389 26.961L70.389 26.961 70.389 26.961Q70.389 28.089 70.929 28.881L70.929 28.881 70.929 28.881Q71.469 29.673 72.357 30.069L72.357 30.069 72.357 30.069Q73.245 30.465 74.301 30.465L74.301 30.465 74.301 30.465Q75.357 30.465 76.281 30.093L76.281 30.093 76.281 30.093Q77.205 29.721 77.769 28.989L77.769 28.989 77.769 28.989Q78.333 28.257 78.333 27.201L78.333 27.201 77.949 25.761 77.949 25.761Q77.949 26.529 77.613 27.057L77.613 27.057 77.613 27.057Q77.277 27.585 76.749 27.849L76.749 27.849 76.749 27.849Q76.221 28.113 75.597 28.113L75.597 28.113 75.597 28.113Q75.165 28.113 74.805 27.945L74.805 27.945 74.805 27.945Q74.445 27.777 74.241 27.489L74.241 27.489 74.241 27.489Q74.037 27.201 74.037 26.769ZM71.181 20.121L72.405 22.569 72.405 22.569Q72.621 22.425 73.161 22.197L73.161 22.197 73.161 22.197Q73.701 21.969 74.421 21.801L74.421 21.801 74.421 21.801Q75.141 21.633 75.885 21.633L75.885 21.633 75.885 21.633Q76.389 21.633 76.773 21.729L76.773 21.729 76.773 21.729Q77.157 21.825 77.433 22.029L77.433 22.029 77.433 22.029Q77.709 22.233 77.829 22.557L77.829 22.557 77.829 22.557Q77.949 22.881 77.949 23.265L77.949 23.265 77.949 30.225 81.429 30.225 81.429 22.425 81.429 22.425Q81.429 21.297 80.757 20.505L80.757 20.505 80.757 20.505Q80.085 19.713 78.945 19.293L78.945 19.293 78.945 19.293Q77.805 18.873 76.317 18.873L76.317 18.873 76.317 18.873Q74.757 18.873 73.449 19.269L73.449 19.269 73.449 19.269Q72.141 19.665 71.181 20.121L71.181 20.121ZM90.022 19.185L82.63 19.185 82.63 22.185 90.022 22.185 90.022 19.185ZM88.078 15.345L84.574 15.345 84.574 30.225 88.078 30.225 88.078 15.345ZM96.983 30.465L96.983 30.465 96.983 30.465Q99.095 30.465 100.559 29.649L100.559 29.649 100.559 29.649Q102.023 28.833 102.911 27.201L102.911 27.201 99.647 26.409 99.647 26.409Q99.263 27.129 98.567 27.489L98.567 27.489 98.567 27.489Q97.871 27.849 96.911 27.849L96.911 27.849 96.911 27.849Q96.095 27.849 95.507 27.465L95.507 27.465 95.507 27.465Q94.919 27.081 94.631 26.373L94.631 26.373 94.631 26.373Q94.343 25.665 94.367 24.657L94.367 24.657 94.367 24.657Q94.367 23.817 94.523 23.205L94.523 23.205 94.523 23.205Q94.679 22.593 94.991 22.185L94.991 22.185 94.991 22.185Q95.303 21.777 95.771 21.573L95.771 21.573 95.771 21.573Q96.239 21.369 96.863 21.369L96.863 21.369 96.863 21.369Q97.487 21.369 97.979 21.657L97.979 21.657 97.979 21.657Q98.471 21.945 98.711 22.461L98.711 22.461 98.711 22.461Q98.951 22.977 98.951 23.721L98.951 23.721 98.951 23.721Q98.951 23.889 98.879 24.117L98.879 24.117 98.879 24.117Q98.807 24.345 98.687 24.561L98.687 24.561 99.551 23.457 92.735 23.457 92.735 25.473 102.839 25.473 102.839 25.473Q102.863 25.281 102.863 25.041L102.863 25.041 102.863 25.041Q102.863 24.801 102.863 24.537L102.863 24.537 102.863 24.537Q102.863 22.761 102.167 21.513L102.167 21.513 102.167 21.513Q101.471 20.265 100.151 19.605L100.151 19.605 100.151 19.605Q98.831 18.945 96.911 18.945L96.911 18.945 96.911 18.945Q95.471 18.945 94.319 19.341L94.319 19.341 94.319 19.341Q93.167 19.737 92.351 20.481L92.351 20.481 92.351 20.481Q91.535 21.225 91.115 22.293L91.115 22.293 91.115 22.293Q90.695 23.361 90.695 24.705L90.695 24.705 90.695 24.705Q90.695 26.457 91.463 27.753L91.463 27.753 91.463 27.753Q92.231 29.049 93.635 29.757L93.635 29.757 93.635 29.757Q95.039 30.465 96.983 30.465Z" class="logo-parts"/>
        <path d="M33.196 51.864C33.196 52.692 58.289 53.364 89.196 53.364 120.104 53.364 145.196 52.692 145.196 51.864 145.196 51.036 120.104 50.364 89.196 50.364 58.289 50.364 33.196 51.036 33.196 51.864Z" class="logo-parts"/>
      </g>
    </g>
  </g>
</svg>
